<svg width="2326" height="458" viewBox="0 0 2326 458" fill="none" xmlns="http://www.w3.org/2000/svg">
<g clip-path="url(#clip0_991_40)">
<path d="M2206.87 287C2222.87 287 2236.03 281 2246.37 269C2257.03 256.667 2262.37 240 2262.37 219C2262.37 166.333 2243.87 140 2206.87 140C2169.87 140 2151.37 165 2151.37 215C2151.37 237 2156.53 254.5 2166.87 267.5C2177.53 280.5 2190.87 287 2206.87 287ZM2260.37 303C2255.7 314 2247.2 322.667 2234.87 329C2222.87 335 2208.87 338 2192.87 338C2172.53 338 2155.37 334.5 2141.37 327.5C2127.7 320.167 2116.53 310.667 2107.87 299C2099.53 287.333 2093.37 273.833 2089.37 258.5C2085.7 243.167 2083.87 227.5 2083.87 211.5C2083.87 192.5 2086.7 175.167 2092.37 159.5C2098.03 143.5 2105.7 130 2115.37 119C2125.03 107.667 2139 110.5 2152 104.5C2165 98.1667 2181 99 2196 99C2226.67 99 2245.03 95.8333 2260.37 120.5L2266 104.5L2322.89 90.6044C2324.15 90.2967 2325.37 91.2506 2325.37 92.5473V338.5C2325.37 357.167 2322.2 373.5 2315.87 387.5C2309.53 401.833 2300.87 413.667 2289.87 423C2278.87 432.667 2265.87 440 2250.87 445C2235.87 450 2219.87 452.5 2202.87 452.5C2185.87 452.5 2170.03 450 2155.37 445C2140.7 440.333 2128.03 433.5 2117.37 424.5C2107.03 415.833 2098.87 405.167 2092.87 392.5C2086.87 379.833 2083.87 365.5 2083.87 349.5H2144.37C2144.37 364.5 2149.2 376 2158.87 384C2168.87 392.333 2182.03 396.5 2198.37 396.5C2215.7 396.5 2230.37 391.667 2242.37 382C2254.37 372.667 2260.37 359.833 2260.37 343.5V303Z" fill="white"/>
<path d="M1994.9 336V187C1994.9 168 1991.74 155.167 1985.4 148.5C1979.07 141.833 1968.24 138.5 1952.9 138.5C1919.24 138.5 1902.4 157.333 1902.4 195V336H1837.4V123H1899.4V126C1907.07 112 1919.33 106 1932 99.0001C1944.67 91.6667 1959 91.0005 1979 91.0005C1990.67 91.0005 2003.5 97.8332 2013.5 101.5C2023.5 104.833 2029.9 97.5001 2036.9 104.5C2044.24 111.5 2049.9 120.167 2053.9 130.5C2058.24 140.5 2060.4 152.167 2060.4 165.5V336H1994.9Z" fill="white"/>
<path d="M1899.5 117.631C1899.5 116.902 1899.23 116.198 1898.75 115.651L1889.04 104.596C1886.41 101.607 1882.91 99.5188 1879.04 98.6243L1856.58 93.4426C1854.13 92.8765 1851.59 93.9024 1850.21 96.0114L1845.26 103.597C1845.09 103.864 1844.87 104.101 1844.62 104.301L1839.75 108.199C1838.33 109.337 1837.5 111.061 1837.5 112.884V130.5C1837.5 132.157 1838.84 133.5 1840.5 133.5H1896.5C1898.16 133.5 1899.5 132.157 1899.5 130.5V117.631Z" fill="white"/>
<path fill-rule="evenodd" clip-rule="evenodd" d="M1742.71 102.5V336H1807.71V102.5H1742.71ZM1786.92 90L1781.12 94.3877C1779.03 95.9641 1776.02 95.1493 1775.01 92.7367L1773.87 90C1776.24 92.5682 1778.14 94.5 1778.5 94.5C1779.04 94.5 1783.07 92.2406 1786.92 90ZM1749.25 90L1746.2 93.6621C1745.74 94.2107 1745.15 94.6271 1744.47 94.868L1742.71 95.5L1749.25 90Z" fill="white"/>
<path d="M1764.55 85.0438C1763.17 84.2938 1761.53 83.7846 1760.03 84.2277L1754.8 85.7633C1754.27 85.9194 1753.78 86.1839 1753.36 86.5402L1749.25 90H1773.87C1771.6 87.5354 1767.4 86.5913 1764.55 85.0438Z" fill="white"/>
<path d="M1802.98 86.189C1802.04 85.4365 1800.82 85.1434 1799.64 85.3906L1792.66 86.8615C1792.22 86.9532 1791.81 87.1169 1791.42 87.3451C1790.14 88.1126 1788.55 89.0547 1786.92 90H1807.71L1802.98 86.189Z" fill="white"/>
<path d="M1807.71 102.5V90H1786.92C1783.07 92.2406 1779.04 94.5 1778.5 94.5C1778.14 94.5 1776.24 92.5682 1773.87 90H1749.25L1742.71 95.5V102.5H1807.71Z" fill="white"/>
<path d="M1650.51 336L1596.51 225.5L1565.01 258V336H1499.51V0H1565.01V183.5L1646.01 90H1725.51L1643.01 180.5L1723.51 336H1650.51Z" fill="white"/>
<path d="M1338.87 336V90H1399.87V119.5C1405.2 111.167 1410.7 104.667 1416.37 100C1422.37 95.3333 1428.37 91.8333 1434.37 89.5C1440.7 86.8333 1447.03 85.1666 1453.37 84.5C1459.7 83.8333 1466.2 83.5 1472.87 83.5H1481.37V150C1475.37 149 1469.37 148.5 1463.37 148.5C1423.7 148.5 1403.87 168.333 1403.87 208V336H1338.87Z" fill="white"/>
<path d="M1190.34 288C1230 288 1249.84 263 1249.84 213C1249.84 163.333 1230 138.5 1190.34 138.5C1150.67 138.5 1130.84 163.333 1130.84 213C1130.84 263 1150.67 288 1190.34 288ZM1190.34 342.5C1170.34 342.5 1152.5 339.333 1136.84 333C1121.17 326.667 1107.84 317.833 1096.84 306.5C1086.17 295.167 1078 281.5 1072.34 265.5C1066.67 249.5 1063.84 232 1063.84 213C1063.84 193.667 1066.67 176 1072.34 160C1078.34 144 1086.84 130.333 1097.84 119C1108.84 107.667 1122 99 1137.34 93C1153 86.6667 1170.67 83.5 1190.34 83.5C1209.67 83.5 1227 86.6667 1242.34 93C1257.67 99 1270.67 107.667 1281.34 119C1292.34 130 1300.67 143.5 1306.34 159.5C1312.34 175.5 1315.34 193.333 1315.34 213C1315.34 232.667 1312.34 250.5 1306.34 266.5C1300.67 282.167 1292.34 295.667 1281.34 307C1270.67 318.333 1257.5 327.167 1241.84 333.5C1226.5 339.5 1209.34 342.5 1190.34 342.5Z" fill="white"/>
<path d="M932.492 336L893.492 193L854.492 336H787.992L717.992 90H786.492L826.492 248L860.492 90H926.492L964.992 248L1002.49 90H1069.49L998.992 336H932.492Z" fill="white"/>
<path d="M642.43 174H702.93V244C702.93 257 700.93 269.5 696.93 281.5C693.263 293.167 687.263 303.667 678.93 313C670.93 322 660.596 329.167 647.93 334.5C635.596 339.833 620.763 342.5 603.43 342.5C585.43 342.5 570.096 339.833 557.43 334.5C544.763 329.167 534.263 322 525.93 313C517.93 304 512.096 293.5 508.43 281.5C504.763 269.5 502.93 256.833 502.93 243.5V23.5H566.93V90H702.93V136H566.93V237C566.93 252.667 569.763 264.833 575.43 273.5C581.43 281.833 591.096 286 604.43 286C617.43 286 626.93 281.833 632.93 273.5C639.263 265.167 642.43 253.333 642.43 238V174Z" fill="#58A522"/>
<path d="M413.465 189C413.132 180 411.465 172.167 408.465 165.5C405.798 158.5 402.132 152.833 397.465 148.5C392.798 143.833 387.465 140.5 381.465 138.5C375.465 136.167 369.298 135 362.965 135C349.965 135 338.632 139.833 328.965 149.5C319.632 158.833 314.298 172 312.965 189H413.465ZM310.965 230C311.965 248.667 317.298 263.5 326.965 274.5C336.965 285.5 349.965 291 365.965 291C376.632 291 385.965 288.667 393.965 284C402.298 279 407.632 272.167 409.965 263.5H476.965C469.298 288.833 455.965 308.333 436.965 322C417.965 335.667 395.298 342.5 368.965 342.5C286.965 342.5 245.965 297.833 245.965 208.5C245.965 189.5 248.632 172.333 253.965 157C259.298 141.667 266.965 128.5 276.965 117.5C287.298 106.5 299.798 98.1666 314.465 92.5C329.132 86.5 345.965 83.5 364.965 83.5C402.965 83.5 431.632 95.6667 450.965 120C470.632 144.333 480.465 181 480.465 230H310.965Z" fill="#58A522"/>
<path d="M157.5 336V187C157.5 168 154.333 155.167 148 148.5C141.667 141.833 130.833 138.5 115.5 138.5C81.8333 138.5 65 157.333 65 195V336H0V90H62V126C69.6667 112 79.8333 101.5 92.5 94.5C105.167 87.1667 121.5 83.5 141.5 83.5C153.167 83.5 164 85.3333 174 89C184 92.3333 192.5 97.5 199.5 104.5C206.833 111.5 212.5 120.167 216.5 130.5C220.833 140.5 223 152.167 223 165.5V336H157.5Z" fill="#58A522"/>
<path d="M1896.5 119L1909.37 108.035C1909.79 107.682 1910.27 107.417 1910.79 107.257L1915.19 105.904C1916.04 105.642 1916.78 105.104 1917.29 104.375L1921.11 98.9161C1922.64 96.7299 1924.98 95.2461 1927.61 94.7948L2002.35 81.9689C2005.8 81.3778 2009.27 82.8347 2011.27 85.7057L2018.15 95.6211C2019.44 97.4717 2022 97.8962 2023.81 96.5597L2027.49 93.852C2028.96 92.7635 2030.99 92.8197 2032.41 93.9883L2040.28 100.491C2041.08 101.152 2041.69 102.01 2042.06 102.981L2047.49 117.217C2048.47 119.796 2046.61 122.571 2043.85 122.64L1898.99 126.216C1895.2 126.31 1893.41 121.571 1896.33 119.145L1896.5 119Z" fill="white"/>
<path d="M2113.95 135.809C2109.55 135.665 2106.8 130.999 2108.8 127.083L2116.5 112L2129.42 107.963C2136.63 105.708 2142.98 101.299 2147.62 95.3278L2159.83 79.5857C2161.92 76.8962 2164.58 74.7097 2167.63 73.1874C2170.45 71.7764 2173.68 71.4283 2176.74 72.2065L2192.48 76.2136C2197.09 77.3877 2201.36 79.6423 2204.93 82.7914L2214.2 90.9728C2215.65 92.2461 2217.61 92.7499 2219.49 92.3274L2229.49 90.0774C2233.97 89.069 2238.67 89.9173 2242.52 92.4292L2261 104.5L2277.82 88.1119C2279.46 86.5134 2281.87 85.9884 2284.02 86.7588L2300.96 92.8071C2301.31 92.9311 2301.69 92.9193 2302.03 92.7741L2312.45 88.3061C2316.41 86.6113 2320.99 87.4949 2324.04 90.5371C2324.28 90.7808 2324.25 91.1842 2323.97 91.389L2259.18 139.261C2258.09 140.063 2256.77 140.476 2255.42 140.432L2113.95 135.809Z" fill="white"/>
<circle cx="1776" cy="33" r="33" fill="white"/>
</g>
<defs>
<clipPath id="clip0_991_40">
<rect width="2325.37" height="457.5" fill="white"/>
</clipPath>
</defs>
</svg>
